<svg xmlns="http://www.w3.org/2000/svg" version="1.1" xmlns:xlink="http://www.w3.org/1999/xlink" width="1000" height="1000"><metadata><rdf:RDF xmlns:rdf="http://www.w3.org/1999/02/22-rdf-syntax-ns#" xmlns:dc="http://purl.org/dc/elements/1.1/"><rdf:Description><dc:creator>RealFaviconGenerator</dc:creator><dc:source>https://realfavicongenerator.net</dc:source></rdf:Description></rdf:RDF></metadata><style>
    #light-icon {
      display: inline;
    }
    #dark-icon {
      display: none;
    }

    @media (prefers-color-scheme: dark) {
      #light-icon {
        display: none;
      }
      #dark-icon {
        display: inline;
      }
    }
  </style><g id="light-icon"><svg xmlns="http://www.w3.org/2000/svg" version="1.1" xmlns:xlink="http://www.w3.org/1999/xlink" width="1000" height="1000"><g clip-path="url(#SvgjsClipPath1506)"><rect width="1000" height="1000" fill="#dddddd"></rect><g transform="matrix(1.9444444444444444,0,0,1.9444444444444444,150,150)"><svg xmlns="http://www.w3.org/2000/svg" width="360" height="360" viewBox="0 0 360 360" fill="none"><path d="M179.528 359.055C278.678 359.055 359.055 278.678 359.055 179.528C359.055 80.3772 278.678 0 179.528 0C80.3772 0 0 80.3772 0 179.528C0 278.678 80.3772 359.055 179.528 359.055Z" fill="#E1E1E1"></path><path d="M179.528 9.4488C157.192 9.44877 135.076 13.848 114.441 22.3952C93.8063 30.9424 75.0569 43.4704 59.2636 59.2636C43.4704 75.0569 30.9424 93.8063 22.3952 114.441C13.848 135.076 9.44877 157.193 9.44881 179.528C9.44877 201.863 13.848 223.979 22.3952 244.614C30.9425 265.249 43.4704 283.998 59.2636 299.791C75.0569 315.585 93.8063 328.113 114.441 336.66C135.076 345.207 157.192 349.606 179.528 349.606C201.863 349.606 223.979 345.207 244.614 336.66C265.249 328.113 283.998 315.585 299.791 299.791C315.585 283.998 328.113 265.249 336.66 244.614C345.207 223.979 349.606 201.863 349.606 179.528C349.606 157.193 345.207 135.076 336.66 114.441C328.113 93.8063 315.585 75.0569 299.791 59.2636C283.998 43.4704 265.249 30.9424 244.614 22.3952C223.979 13.848 201.863 9.44877 179.528 9.4488ZM179.528 26.9939C219.982 26.9941 258.779 43.0647 287.385 71.6702C315.99 100.276 332.061 139.073 332.061 179.528C332.061 219.982 315.99 258.779 287.385 287.385C258.779 315.99 219.982 332.061 179.528 332.061C139.073 332.061 100.276 315.99 71.6702 287.385C43.0647 258.779 26.9941 219.982 26.9939 179.528C26.9941 139.073 43.0647 100.276 71.6702 71.6702C100.276 43.0647 139.073 26.9941 179.528 26.9939Z" fill="#1A1A1A"></path><path d="M50.6228 90.097L81.4313 114.421L158.82 68.5257L108.39 320.466" stroke="#1A1A1A" stroke-width="22.577"></path><path d="M201.626 33.709L143.521 320.904" stroke="#1A1A1A" stroke-width="22.577"></path><path d="M314.621 99.0309L207.648 172.179L201.559 202.264L264.561 307.514" stroke="#1A1A1A" stroke-width="22.577"></path><path d="M224.21 191.816L318.166 210.962" stroke="#1A1A1A" stroke-width="22.577"></path></svg></g></g><defs><clipPath id="SvgjsClipPath1506"><rect width="1000" height="1000" x="0" y="0" rx="350" ry="350"></rect></clipPath></defs></svg></g><g id="dark-icon"><svg xmlns="http://www.w3.org/2000/svg" version="1.1" xmlns:xlink="http://www.w3.org/1999/xlink" width="1000" height="1000"><g clip-path="url(#SvgjsClipPath1507)"><rect width="1000" height="1000" fill="#ffffff"></rect><g transform="matrix(1.9444444444444444,0,0,1.9444444444444444,150,150)"><svg xmlns="http://www.w3.org/2000/svg" width="360" height="360" viewBox="0 0 360 360" fill="none"><path d="M179.528 359.055C278.678 359.055 359.055 278.678 359.055 179.528C359.055 80.3772 278.678 0 179.528 0C80.3772 0 0 80.3772 0 179.528C0 278.678 80.3772 359.055 179.528 359.055Z" fill="#E1E1E1"></path><path d="M179.528 9.4488C157.192 9.44877 135.076 13.848 114.441 22.3952C93.8063 30.9424 75.0569 43.4704 59.2636 59.2636C43.4704 75.0569 30.9424 93.8063 22.3952 114.441C13.848 135.076 9.44877 157.193 9.44881 179.528C9.44877 201.863 13.848 223.979 22.3952 244.614C30.9425 265.249 43.4704 283.998 59.2636 299.791C75.0569 315.585 93.8063 328.113 114.441 336.66C135.076 345.207 157.192 349.606 179.528 349.606C201.863 349.606 223.979 345.207 244.614 336.66C265.249 328.113 283.998 315.585 299.791 299.791C315.585 283.998 328.113 265.249 336.66 244.614C345.207 223.979 349.606 201.863 349.606 179.528C349.606 157.193 345.207 135.076 336.66 114.441C328.113 93.8063 315.585 75.0569 299.791 59.2636C283.998 43.4704 265.249 30.9424 244.614 22.3952C223.979 13.848 201.863 9.44877 179.528 9.4488ZM179.528 26.9939C219.982 26.9941 258.779 43.0647 287.385 71.6702C315.99 100.276 332.061 139.073 332.061 179.528C332.061 219.982 315.99 258.779 287.385 287.385C258.779 315.99 219.982 332.061 179.528 332.061C139.073 332.061 100.276 315.99 71.6702 287.385C43.0647 258.779 26.9941 219.982 26.9939 179.528C26.9941 139.073 43.0647 100.276 71.6702 71.6702C100.276 43.0647 139.073 26.9941 179.528 26.9939Z" fill="#1A1A1A"></path><path d="M50.6228 90.097L81.4313 114.421L158.82 68.5257L108.39 320.466" stroke="#1A1A1A" stroke-width="22.577"></path><path d="M201.626 33.709L143.521 320.904" stroke="#1A1A1A" stroke-width="22.577"></path><path d="M314.621 99.0309L207.648 172.179L201.559 202.264L264.561 307.514" stroke="#1A1A1A" stroke-width="22.577"></path><path d="M224.21 191.816L318.166 210.962" stroke="#1A1A1A" stroke-width="22.577"></path></svg></g></g><defs><clipPath id="SvgjsClipPath1507"><rect width="1000" height="1000" x="0" y="0" rx="350" ry="350"></rect></clipPath></defs></svg></g></svg>