<svg width="20" height="20" viewBox="0 0 20 20" fill="none" xmlns="http://www.w3.org/2000/svg">
<path d="M15.31 12H7.72L3.95 0.680003C3.88291 0.481382 3.7551 0.308868 3.58463 0.186845C3.41416 0.0648223 3.20964 -0.000537828 3 3.33354e-06H0V2H2.28L5.82 12.63C5.95246 13.0291 6.20736 13.3763 6.54845 13.6223C6.88954 13.8682 7.29948 14.0004 7.72 14H15.31C15.7169 13.9993 16.114 13.8745 16.4481 13.6422C16.7822 13.4099 17.0376 13.0812 17.18 12.7L19.94 5.35L18.07 4.65L15.31 12ZM8 16C7.46957 16 6.96086 16.2107 6.58579 16.5858C6.21071 16.9609 6 17.4696 6 18C6 18.5304 6.21071 19.0391 6.58579 19.4142C6.96086 19.7893 7.46957 20 8 20C8.53043 20 9.03914 19.7893 9.41421 19.4142C9.78929 19.0391 10 18.5304 10 18C10 17.4696 9.78929 16.9609 9.41421 16.5858C9.03914 16.2107 8.53043 16 8 16ZM15 16C14.4696 16 13.9609 16.2107 13.5858 16.5858C13.2107 16.9609 13 17.4696 13 18C13 18.5304 13.2107 19.0391 13.5858 19.4142C13.9609 19.7893 14.4696 20 15 20C15.5304 20 16.0391 19.7893 16.4142 19.4142C16.7893 19.0391 17 18.5304 17 18C17 17.4696 16.7893 16.9609 16.4142 16.5858C16.0391 16.2107 15.5304 16 15 16Z" fill="#1A1A1A"/>
<path d="M9.71004 5.29004L8.29004 6.71004L11 9.41004L15.71 4.71004L14.29 3.29004L11 6.59004L9.71004 5.29004Z" fill="#1A1A1A"/>
</svg>
