<svg width="69" height="69" viewBox="0 0 69 69" fill="none" xmlns="http://www.w3.org/2000/svg">
<path d="M20 0H48.9655C60 0 68.9655 8.96552 68.9655 20V48.9655C68.9655 54.2698 66.8584 59.3569 63.1077 63.1077C59.3569 66.8584 54.2698 68.9655 48.9655 68.9655H20C8.96552 68.9655 0 60 0 48.9655V20C0 14.6957 2.10714 9.60859 5.85786 5.85786C9.60859 2.10714 14.6957 0 20 0ZM19.3103 6.89655C16.018 6.89655 12.8605 8.20443 10.5325 10.5325C8.20443 12.8605 6.89655 16.018 6.89655 19.3103V49.6552C6.89655 56.5172 12.4483 62.069 19.3103 62.069H49.6552C52.9475 62.069 56.105 60.7611 58.4331 58.4331C60.7611 56.105 62.069 52.9475 62.069 49.6552V19.3103C62.069 12.4483 56.5172 6.89655 49.6552 6.89655H19.3103ZM52.5862 12.069C53.7294 12.069 54.8257 12.5231 55.6341 13.3314C56.4424 14.1398 56.8966 15.2361 56.8966 16.3793C56.8966 17.5225 56.4424 18.6188 55.6341 19.4272C54.8257 20.2355 53.7294 20.6897 52.5862 20.6897C51.443 20.6897 50.3467 20.2355 49.5383 19.4272C48.73 18.6188 48.2759 17.5225 48.2759 16.3793C48.2759 15.2361 48.73 14.1398 49.5383 13.3314C50.3467 12.5231 51.443 12.069 52.5862 12.069ZM34.4828 17.2414C39.0555 17.2414 43.4409 19.0579 46.6743 22.2913C49.9076 25.5246 51.7241 29.9101 51.7241 34.4828C51.7241 39.0555 49.9076 43.4409 46.6743 46.6743C43.4409 49.9076 39.0555 51.7241 34.4828 51.7241C29.9101 51.7241 25.5246 49.9076 22.2913 46.6743C19.0579 43.4409 17.2414 39.0555 17.2414 34.4828C17.2414 29.9101 19.0579 25.5246 22.2913 22.2913C25.5246 19.0579 29.9101 17.2414 34.4828 17.2414ZM34.4828 24.1379C31.7391 24.1379 29.1079 25.2278 27.1679 27.1679C25.2278 29.1079 24.1379 31.7391 24.1379 34.4828C24.1379 37.2264 25.2278 39.8576 27.1679 41.7977C29.1079 43.7377 31.7391 44.8276 34.4828 44.8276C37.2264 44.8276 39.8576 43.7377 41.7977 41.7977C43.7377 39.8576 44.8276 37.2264 44.8276 34.4828C44.8276 31.7391 43.7377 29.1079 41.7977 27.1679C39.8576 25.2278 37.2264 24.1379 34.4828 24.1379Z" fill="#1A1A1A"/>
</svg>
