<svg width="75" height="75" viewBox="0 0 75 75" fill="none" xmlns="http://www.w3.org/2000/svg">
<path d="M51.5625 32.8125C51.5625 40.5937 45.2812 46.875 37.5 46.875C29.7188 46.875 23.4375 40.5937 23.4375 32.8125C23.4375 25.0313 29.7188 18.75 37.5 18.75C45.2812 18.75 51.5625 25.0313 51.5625 32.8125Z" fill="#1A1A1A"/>
<path fill-rule="evenodd" clip-rule="evenodd" d="M75 37.5C75 58.2188 58.2188 75 37.5 75C16.7812 75 0 58.2188 0 37.5C0 16.7812 16.7812 0 37.5 0C58.2188 0 75 16.7812 75 37.5ZM18.75 64.4531C19.5 63.2062 26.7656 51.5625 37.4531 51.5625C48.0937 51.5625 55.4062 63.2344 56.1562 64.4531C60.515 61.439 64.0764 57.4112 66.5341 52.7162C68.9919 48.0212 70.2724 42.7994 70.2656 37.5C70.2656 19.3594 55.5937 4.6875 37.4531 4.6875C19.3125 4.6875 4.64063 19.3594 4.64063 37.5C4.64063 48.6563 10.2187 58.5469 18.75 64.4531Z" fill="#1A1A1A"/>
</svg>
