<svg width="73" height="59" viewBox="0 0 73 59" fill="none" xmlns="http://www.w3.org/2000/svg">
<path d="M72.1379 6.89655C69.4828 8.10345 66.6207 8.89655 63.6552 9.27586C66.6897 7.44828 69.0345 4.55172 70.1379 1.06897C67.2759 2.7931 64.1034 4 60.7586 4.68966C58.0345 1.72414 54.2069 0 49.8621 0C41.7586 0 35.1379 6.62069 35.1379 14.7931C35.1379 15.9655 35.2759 17.1034 35.5172 18.1724C23.2414 17.5517 12.3103 11.6552 5.03448 2.72414C3.75862 4.89655 3.03448 7.44828 3.03448 10.1379C3.03448 15.2759 5.62069 19.8276 9.62069 22.4138C7.17241 22.4138 4.89655 21.7241 2.89655 20.6897V20.7931C2.89655 27.9655 8 33.9655 14.7586 35.3103C12.5891 35.9067 10.3105 35.9893 8.10345 35.5517C9.04002 38.4913 10.8743 41.0635 13.3483 42.9067C15.8224 44.7498 18.8119 45.7713 21.8966 45.8276C16.6678 49.9673 10.1862 52.2048 3.51724 52.1724C2.34483 52.1724 1.17241 52.1034 0 51.9655C6.55172 56.1724 14.3448 58.6207 22.6897 58.6207C49.8621 58.6207 64.7931 36.069 64.7931 16.5172C64.7931 15.8621 64.7931 15.2414 64.7586 14.5862C67.6552 12.5172 70.1379 9.89655 72.1379 6.89655Z" fill="#1A1A1A"/>
</svg>
