<svg width="69" height="49" viewBox="0 0 69 49" fill="none" xmlns="http://www.w3.org/2000/svg">
<path d="M27.5862 34.4828L45.4828 24.1379L27.5862 13.7931V34.4828ZM67.4483 7.48276C67.8965 9.10345 68.2069 11.2759 68.4138 14.0345C68.6552 16.7931 68.7586 19.1724 68.7586 21.2414L68.9655 24.1379C68.9655 31.6897 68.4138 37.2414 67.4483 40.7931C66.5862 43.8966 64.5862 45.8966 61.4828 46.7586C59.8621 47.2069 56.8966 47.5172 52.3448 47.7241C47.8621 47.9655 43.7586 48.069 39.9655 48.069L34.4828 48.2759C20.0345 48.2759 11.0345 47.7241 7.48276 46.7586C4.37931 45.8966 2.37931 43.8966 1.51724 40.7931C1.06897 39.1724 0.758621 37 0.551724 34.2414C0.310345 31.4828 0.206896 29.1035 0.206896 27.0345L0 24.1379C0 16.5862 0.551724 11.0345 1.51724 7.48276C2.37931 4.37931 4.37931 2.37931 7.48276 1.51724C9.10345 1.06897 12.069 0.75862 16.6207 0.551724C21.1034 0.310344 25.2069 0.206896 29 0.206896L34.4828 0C48.931 0 57.931 0.551724 61.4828 1.51724C64.5862 2.37931 66.5862 4.37931 67.4483 7.48276Z" fill="#1A1A1A"/>
</svg>
