<svg width="50" height="50" viewBox="0 0 50 50" fill="none" xmlns="http://www.w3.org/2000/svg">
<path d="M40 40C41.3261 40 42.5979 40.5268 43.5355 41.4645C44.4732 42.4021 45 43.6739 45 45C45 46.3261 44.4732 47.5979 43.5355 48.5355C42.5979 49.4732 41.3261 50 40 50C38.6739 50 37.4021 49.4732 36.4645 48.5355C35.5268 47.5979 35 46.3261 35 45C35 42.225 37.225 40 40 40ZM0 0H8.175L10.525 5H47.5C48.163 5 48.7989 5.26339 49.2678 5.73223C49.7366 6.20107 50 6.83696 50 7.5C50 7.925 49.875 8.35 49.7 8.75L40.75 24.925C39.9 26.45 38.25 27.5 36.375 27.5H17.75L15.5 31.575L15.425 31.875C15.425 32.0408 15.4908 32.1997 15.6081 32.3169C15.7253 32.4342 15.8842 32.5 16.05 32.5H45V37.5H15C13.6739 37.5 12.4021 36.9732 11.4645 36.0355C10.5268 35.0979 10 33.8261 10 32.5C10 31.625 10.225 30.8 10.6 30.1L14 23.975L5 5H0V0ZM15 40C16.3261 40 17.5979 40.5268 18.5355 41.4645C19.4732 42.4021 20 43.6739 20 45C20 46.3261 19.4732 47.5979 18.5355 48.5355C17.5979 49.4732 16.3261 50 15 50C13.6739 50 12.4021 49.4732 11.4645 48.5355C10.5268 47.5979 10 46.3261 10 45C10 42.225 12.225 40 15 40ZM37.5 22.5L44.45 10H12.85L18.75 22.5H37.5Z" fill="#E1E1E1"/>
</svg>
