<svg width="21" height="21" viewBox="0 0 21 21" fill="none" xmlns="http://www.w3.org/2000/svg">
<path d="M8 18.6C8 19.7 7.1 20.6 6 20.6C4.9 20.6 4 19.7 4 18.6C4 17.5 4.9 16.6 6 16.6C7.1 16.6 8 17.5 8 18.6ZM16 16.6C14.9 16.6 14 17.5 14 18.6C14 19.7 14.9 20.6 16 20.6C17.1 20.6 18 19.7 18 18.6C18 17.5 17.1 16.6 16 16.6ZM6.2 13.4V13.3L7.1 11.6H14.5C15.2 11.6 15.9 11.2 16.2 10.6L20.1 3.6L18.4 2.6L14.5 9.6H7.5L3.3 0.6H0V2.6H2L5.6 10.2L4.2 12.6C4.1 12.9 4 13.2 4 13.6C4 14.7 4.9 15.6 6 15.6H18V13.6H6.4C6.3 13.6 6.2 13.5 6.2 13.4ZM17 1.4L15.6 0L10.8 4.8L8.2 2.2L6.8 3.6L10.8 7.6L17 1.4Z" fill="#E1E1E1"/>
</svg>
