<svg width="50" height="50" viewBox="0 0 50 50" fill="none" xmlns="http://www.w3.org/2000/svg">
<path d="M16.2153 4.15723H33.6774C40.3296 4.15723 45.7346 9.56215 45.7346 16.2144V33.6764C45.7346 36.8742 44.4643 39.941 42.2031 42.2021C39.9419 44.4633 36.8752 45.7336 33.6774 45.7336H16.2153C9.56313 45.7336 4.1582 40.3287 4.1582 33.6764V16.2144C4.1582 13.0166 5.42851 9.94983 7.68966 7.68868C9.95081 5.42753 13.0176 4.15723 16.2153 4.15723ZM15.7996 8.31486C13.8148 8.31486 11.9113 9.10333 10.5078 10.5068C9.1043 11.9103 8.31584 13.8138 8.31584 15.7986V34.0922C8.31584 38.229 11.6627 41.5759 15.7996 41.5759H34.0932C36.078 41.5759 37.9815 40.7875 39.385 39.384C40.7885 37.9805 41.5769 36.077 41.5769 34.0922V15.7986C41.5769 11.6618 38.23 8.31486 34.0932 8.31486H15.7996ZM35.8602 11.4331C36.5493 11.4331 37.2103 11.7069 37.6976 12.1942C38.1849 12.6815 38.4587 13.3424 38.4587 14.0316C38.4587 14.7208 38.1849 15.3817 37.6976 15.869C37.2103 16.3564 36.5493 16.6301 35.8602 16.6301C35.171 16.6301 34.5101 16.3564 34.0227 15.869C33.5354 15.3817 33.2617 14.7208 33.2617 14.0316C33.2617 13.3424 33.5354 12.6815 34.0227 12.1942C34.5101 11.7069 35.171 11.4331 35.8602 11.4331ZM24.9464 14.5513C27.7031 14.5513 30.3468 15.6464 32.2961 17.5957C34.2454 19.5449 35.3405 22.1887 35.3405 24.9454C35.3405 27.7021 34.2454 30.3459 32.2961 32.2951C30.3468 34.2444 27.7031 35.3395 24.9464 35.3395C22.1897 35.3395 19.5459 34.2444 17.5966 32.2951C15.6474 30.3459 14.5523 27.7021 14.5523 24.9454C14.5523 22.1887 15.6474 19.5449 17.5966 17.5957C19.5459 15.6464 22.1897 14.5513 24.9464 14.5513ZM24.9464 18.709C23.2924 18.709 21.7061 19.366 20.5365 20.5356C19.367 21.7051 18.7099 23.2914 18.7099 24.9454C18.7099 26.5994 19.367 28.1857 20.5365 29.3552C21.7061 30.5248 23.2924 31.1819 24.9464 31.1819C26.6004 31.1819 28.1867 30.5248 29.3562 29.3552C30.5258 28.1857 31.1828 26.5994 31.1828 24.9454C31.1828 23.2914 30.5258 21.7051 29.3562 20.5356C28.1867 19.366 26.6004 18.709 24.9464 18.709Z" fill="#E1E1E1"/>
</svg>
