<svg width="50" height="50" viewBox="0 0 50 50" fill="none" xmlns="http://www.w3.org/2000/svg">
<path d="M46.69 12.4731C45.0893 13.2007 43.3639 13.6788 41.5761 13.9074C43.4055 12.8057 44.8191 11.0595 45.4843 8.95986C43.7589 9.99927 41.8464 10.7269 39.8299 11.1426C38.1877 9.35484 35.8802 8.31543 33.2609 8.31543C28.3757 8.31543 24.3843 12.3068 24.3843 17.2336C24.3843 17.9404 24.4675 18.6264 24.613 19.2708C17.2124 18.8966 10.6226 15.3418 6.23625 9.9577C5.46708 11.2674 5.03053 12.8057 5.03053 14.4272C5.03053 17.5246 6.58964 20.2686 9.00107 21.8277C7.52511 21.8277 6.15309 21.412 4.94738 20.7883V20.8507C4.94738 25.1746 8.02403 28.7918 12.0985 29.6025C10.7906 29.962 9.41691 30.0118 8.08639 29.748C8.65101 31.5202 9.7568 33.0708 11.2483 34.182C12.7398 35.2932 14.5421 35.909 16.4017 35.9429C13.2495 38.4386 9.34202 39.7875 5.32157 39.7679C4.61477 39.7679 3.90797 39.7264 3.20117 39.6432C7.15093 42.1794 11.8491 43.6553 16.8798 43.6553C33.2609 43.6553 42.2622 30.0599 42.2622 18.273C42.2622 17.878 42.2622 17.5038 42.2414 17.1088C43.9876 15.8615 45.4843 14.2816 46.69 12.4731Z" fill="#E1E1E1"/>
</svg>
