<svg width="50" height="50" viewBox="0 0 50 50" fill="none" xmlns="http://www.w3.org/2000/svg">
<path d="M20.7887 31.1827L31.5778 24.9463L20.7887 18.7098V31.1827ZM44.8199 14.9056C45.0901 15.8826 45.2772 17.1923 45.4019 18.8553C45.5475 20.5184 45.6098 21.9528 45.6098 23.2L45.7346 24.9463C45.7346 29.4989 45.4019 32.8458 44.8199 34.9869C44.3002 36.8579 43.0945 38.0636 41.2235 38.5833C40.2465 38.8535 38.4587 39.0406 35.7147 39.1654C33.0122 39.3109 30.5384 39.3732 28.2517 39.3732L24.9464 39.498C16.2361 39.498 10.8104 39.1654 8.66924 38.5833C6.7983 38.0636 5.59259 36.8579 5.07288 34.9869C4.80264 34.0099 4.61554 32.7002 4.49081 31.0372C4.3453 29.3741 4.28293 27.9398 4.28293 26.6925L4.1582 24.9463C4.1582 20.3936 4.49081 17.0467 5.07288 14.9056C5.59259 13.0346 6.7983 11.8289 8.66924 11.3092C9.64628 11.039 11.4341 10.8519 14.1781 10.7271C16.8806 10.5816 19.3544 10.5193 21.6411 10.5193L24.9464 10.3945C33.6566 10.3945 39.0823 10.7271 41.2235 11.3092C43.0945 11.8289 44.3002 13.0346 44.8199 14.9056Z" fill="#E1E1E1"/>
</svg>
